<svg width="128" height="128" viewBox="0 0 102 128" fill="none" xmlns="http://www.w3.org/2000/svg">
  <path d="M43.6382 18.014H48.0431C48.4417 18.0991 48.8748 18.0962 49.2808 18.1217C49.9349 18.1628 50.5952 18.2068 51.2449 18.2931C52.4891 18.4583 53.7624 18.6461 54.9907 18.897C56.4868 19.2027 62.3882 20.6525 63.3095 21.6522C63.5609 21.9249 63.6329 22.342 63.6595 22.7004C63.7359 23.7328 63.6629 24.8091 63.6619 25.8467L63.6615 32.1943L63.6634 40.8595C63.6648 42.391 63.7214 43.9403 63.6576 45.4694C63.6441 45.7931 63.5889 46.1052 63.3265 46.3274C63.2109 46.4251 63.0606 46.4618 62.9122 46.4676C62.3659 46.4888 59.1523 45.0533 58.3658 44.7531C55.4944 43.6497 52.4867 42.9372 49.4244 42.6348C43.0768 42.0449 37.3955 43.3942 32.4257 47.5146C30.763 48.9107 29.2573 50.5914 28.0016 52.4504C25.9634 55.468 37.0095 60.1538 37.0095 63.2544C37.0095 66.5994 24.7913 71.0169 26.8319 74.7435C27.4877 75.941 28.26 77.0822 29.1434 78.1497C32.6593 82.386 38.2155 84.7222 43.6926 85.3858C46.1359 85.6786 48.7085 85.538 51.1342 85.1705C52.0251 85.0357 52.9194 84.9008 53.7967 84.6937C55.2068 84.36 56.6091 83.8928 57.9728 83.4064C58.7071 83.1444 62.5114 81.492 62.9185 81.5449C63.2245 81.5844 63.4115 81.7872 63.5812 82.0222L63.6208 82.0781C63.7093 82.6806 63.6639 84.2791 63.6624 84.9557L63.6615 90.3643L63.6634 100.207C63.6639 101.914 63.673 103.62 63.6537 105.327C63.6382 106.739 62.3829 106.943 61.3184 107.323C59.1272 108.123 56.8745 108.747 54.5823 109.187C42.5088 111.485 30.0148 108.84 19.9231 101.847C11.2779 95.8677 4.95126 87.1158 1.99819 77.0515C-6.07269 49.4337 12.613 21.1534 41.4295 18.204C42.115 18.1339 42.9895 18.1443 43.6382 18.014Z" fill="#7C5CFF"/>
  <path d="M69.9597 23.521C70.9908 23.8051 73.4097 25.7046 74.332 26.4713C82.0296 32.8691 88.1819 41.1758 93.3025 49.6991C95.313 53.0453 97.1247 56.5724 98.4468 60.2348C98.6653 60.8395 98.8123 61.6095 98.9998 62.2466V63.7429C98.7736 64.4375 98.6537 65.1654 98.4246 65.8604C98.0345 67.0456 97.4974 68.2333 96.9821 69.3713C92.224 79.8778 80.7177 95.9358 70.8187 102.086C70.4784 102.297 70.1598 102.52 69.7392 102.408C69.5019 102.345 69.2612 102.157 69.1461 101.941C69.0253 101.713 69.0354 101.438 69.0301 101.187C68.9813 98.8799 69.0316 96.5619 69.032 94.2535V80.1894L69.0301 37.7624L69.0296 29.0439C69.0296 28.0509 68.9528 24.704 69.164 23.9937C69.4076 23.6948 69.6087 23.6334 69.9597 23.521Z" fill="#7C5CFF"/>
</svg>
